<svg width="21" height="21" viewBox="0 0 21 21" fill="none" xmlns="http://www.w3.org/2000/svg">
<path d="M20.3689 11.1087C20.3698 10.4272 20.3117 9.74701 20.1955 9.07544H10.6997V12.9266H16.1385C16.0272 13.5417 15.7916 14.1281 15.446 14.6503C15.1004 15.1726 14.6518 15.6199 14.1274 15.9654V18.4652H17.3733C19.2739 16.7251 20.3689 14.1516 20.3689 11.1087Z" fill="#4285F4"/>
<path d="M10.6998 20.8806C13.4171 20.8806 15.705 19.9946 17.3734 18.4669L14.1275 15.967C13.2241 16.5753 12.0605 16.9225 10.6998 16.9225C8.0734 16.9225 5.8442 15.1642 5.04706 12.7949H1.70325V15.3712C2.54132 17.0273 3.82641 18.4195 5.41506 19.3924C7.0037 20.3653 8.83336 20.8805 10.6998 20.8806Z" fill="#34A853"/>
<path d="M5.04698 12.7946C4.62556 11.5531 4.62556 10.2086 5.04698 8.96701V6.39075H1.70317C0.998154 7.78395 0.630981 9.32157 0.630981 10.8808C0.630981 12.44 0.998154 13.9777 1.70317 15.3709L5.04698 12.7946Z" fill="#FBBC04"/>
<path d="M10.6998 4.83941C12.1357 4.81611 13.5233 5.3549 14.5624 6.33933L17.4363 3.48531C15.614 1.7855 13.1998 0.852274 10.6998 0.881271C8.83336 0.881356 7.0037 1.3966 5.41506 2.36948C3.82641 3.34236 2.54132 4.73458 1.70325 6.39072L5.04706 8.96698C5.8442 6.59765 8.0734 4.83941 10.6998 4.83941Z" fill="#EA4335"/>
</svg>
