<svg width="16" height="12" viewBox="0 0 16 12" fill="none" xmlns="http://www.w3.org/2000/svg">
<path d="M8 0.797272C4.36364 0.797272 1.25818 3.05909 0 6.25182C1.25818 9.44454 4.36364 11.7064 8 11.7064C11.6364 11.7064 14.7418 9.44454 16 6.25182C14.7418 3.05909 11.6364 0.797272 8 0.797272ZM8 9.88818C5.99273 9.88818 4.36364 8.25909 4.36364 6.25182C4.36364 4.24454 5.99273 2.61545 8 2.61545C10.0073 2.61545 11.6364 4.24454 11.6364 6.25182C11.6364 8.25909 10.0073 9.88818 8 9.88818ZM8 4.07C6.79273 4.07 5.81818 5.04454 5.81818 6.25182C5.81818 7.45909 6.79273 8.43363 8 8.43363C9.20727 8.43363 10.1818 7.45909 10.1818 6.25182C10.1818 5.04454 9.20727 4.07 8 4.07Z" fill="#4D4D4D"/>
</svg>
